<svg width="132" height="24" viewBox="0 0 132 24" fill="none" xmlns="http://www.w3.org/2000/svg">
<g clip-path="url(#clip0_1_16396)">
<g clip-path="url(#clip1_1_16396)">
<path d="M32.1308 3.48907C32.1178 3.48907 32.1048 3.47607 32.0908 3.47607V3.48907H32.1308ZM44.0978 3.48907C44.0848 3.48907 44.0718 3.47607 44.0578 3.47607V3.48907H44.0978Z" fill="#011F44"/>
<path d="M47.4852 10.1911H38.7872C38.7602 5.7751 38.0882 2.0001 44.0722 3.4901V0.523099C41.3042 -0.548901 37.2582 -0.0779006 35.9402 3.1231C35.0702 4.5601 35.2682 8.2451 35.2552 10.1911H26.8202C26.7942 5.7751 26.1202 2.0001 32.1052 3.4901V0.523099C29.3242 -0.548901 25.2912 -0.0649006 23.9732 3.1231C23.1032 4.5601 23.3012 8.2451 23.2882 10.1911H20.0332V13.3921H23.2752V28.4831H26.8072V13.3801H35.2422V28.4841H38.7742V13.3801H47.2082V28.5501H50.7402V10.1901H47.4852V10.1911ZM67.9922 16.8681C67.8342 15.7311 67.3862 14.7911 66.6222 14.0071C65.8572 13.2491 64.6052 12.8441 62.8522 12.8441C61.9032 12.8441 61.0602 13.0271 60.3482 13.3661C59.6414 13.6902 59.0257 14.1842 58.5562 14.8041C58.0682 15.4041 57.7262 16.0841 57.4882 16.8811C57.2642 17.6781 57.1062 18.5011 57.1062 19.3241C57.1062 20.1871 57.2252 21.0231 57.4492 21.7681C57.6732 22.5651 58.0552 23.2311 58.5162 23.8451C59.0042 24.4461 59.6232 24.9031 60.3742 25.2821C61.1392 25.6221 62.0092 25.8051 63.0372 25.8051C64.5922 25.8051 65.7382 25.4651 66.4632 24.8251C67.1882 24.1851 67.7152 23.3221 68.0182 22.1851H71.5642C71.4062 23.1271 71.1422 23.9891 70.6942 24.8251C70.2722 25.6481 69.6662 26.3671 68.9412 26.9681C68.1648 27.6074 67.275 28.0949 66.3182 28.4051C65.2902 28.7451 64.1182 28.9281 62.7862 28.9281C61.2712 28.9281 59.9402 28.6661 58.7932 28.1311C57.6885 27.6323 56.7042 26.9014 55.9072 25.9881C55.1162 25.0861 54.5362 24.0681 54.1142 22.9301C53.7322 21.7681 53.5082 20.5521 53.5082 19.3501C53.5082 18.1101 53.6922 16.9071 54.1142 15.7701C54.4962 14.6081 55.1032 13.5881 55.8672 12.6871C56.6322 11.7851 57.6202 11.0671 58.7532 10.5441C59.9002 10.0211 61.2182 9.7471 62.7472 9.7471C64.2232 9.7471 65.5272 9.9691 66.5822 10.3871C67.6492 10.8051 68.5192 11.3281 69.2442 12.0071C69.9163 12.6662 70.4575 13.4466 70.8392 14.3071C71.2128 15.1429 71.4443 16.0351 71.5242 16.9471H67.9922V16.8681ZM77.7052 20.3041C77.7452 21.1011 77.8632 21.8071 78.0872 22.4861C78.3112 23.1661 78.6542 23.7011 79.1152 24.2241C79.5772 24.7471 80.1432 25.1641 80.8682 25.4651C81.5932 25.7651 82.4232 25.9231 83.4912 25.9231C84.8612 25.9231 85.9292 25.6231 86.6412 25.0601C87.3662 24.4981 87.8532 23.8841 88.1562 23.0871H91.7282C91.5702 23.8841 91.2672 24.5901 90.8182 25.3081C90.3972 26.0281 89.8302 26.6281 89.1052 27.1511C88.3802 27.6731 87.5902 28.1311 86.6412 28.4311C85.6912 28.7711 84.6242 28.9151 83.4512 28.9151C81.8962 28.9151 80.5652 28.6531 79.3792 28.1571C78.2062 27.6341 77.2442 26.9551 76.4932 26.0791C75.7282 25.2171 75.1622 24.1981 74.7792 23.0221C74.3972 21.8461 74.2132 20.6051 74.2132 19.2851C74.2132 17.9261 74.3972 16.6451 74.8192 15.4441C75.2412 14.2811 75.8072 13.2231 76.6112 12.3861C77.3762 11.5241 78.3252 10.8451 79.4582 10.3481C80.6052 9.8651 81.8962 9.6301 83.3332 9.6301C84.5062 9.6301 85.6532 9.8521 86.6802 10.2701C87.7482 10.6881 88.6182 11.2891 89.4222 12.0471C90.1909 12.8028 90.808 13.6986 91.2402 14.6861C91.6663 15.7132 91.8858 16.8142 91.8862 17.9261C91.8862 18.1881 91.8862 18.5271 91.8462 18.9061C91.8462 19.2861 91.7672 19.7291 91.6882 20.2261H77.7052V20.3041ZM83.2542 12.5821C81.6592 12.5821 80.3672 13.0401 79.3392 13.9421C78.3512 14.8421 77.8242 15.9661 77.7452 17.6261H88.4602C88.4602 16.0061 87.9722 14.8821 86.9832 13.9801C85.9952 13.0401 84.7442 12.5821 83.2542 12.5821ZM96.7102 10.2041L102.482 23.5441L108.334 10.2041H112.169L103.695 28.5621H101.257L92.8752 10.2041H96.7102ZM118.258 10.2041H114.726V28.5621H118.258V10.2041ZM125.862 28.5101H122.33V0.248099H125.862V13.3281C126.459 12.1867 127.388 11.2525 128.525 10.6481C129.686 10.0044 130.992 9.66709 132.32 9.6681C133.73 9.6681 135.022 9.9301 136.195 10.4271C137.368 10.9491 138.396 11.6291 139.2 12.5431C140.031 13.4421 140.688 14.4879 141.137 15.6271C141.598 16.7891 141.822 18.0441 141.822 19.3241C141.822 20.6041 141.598 21.8461 141.137 23.0221C140.694 24.1562 140.036 25.1942 139.2 26.0791C138.369 26.9811 137.381 27.6601 136.195 28.1961C135.022 28.7191 133.73 28.9541 132.32 28.9541C130.95 28.9541 129.698 28.6141 128.525 27.9741C127.391 27.3659 126.464 26.4331 125.862 25.2951V28.5101ZM132.136 25.8441C133.045 25.8441 133.889 25.6611 134.64 25.3211C135.375 24.9937 136.035 24.5177 136.577 23.9231C137.122 23.3305 137.547 22.6385 137.829 21.8851C138.132 21.0881 138.29 20.2651 138.29 19.4031C138.29 18.5401 138.132 17.6651 137.829 16.9201C137.538 16.1593 137.114 15.4561 136.577 14.8431C136.05 14.2421 135.404 13.7841 134.64 13.4051C133.852 13.0558 132.998 12.8779 132.136 12.8831C131.187 12.8831 130.317 13.0661 129.553 13.4061C128.788 13.7461 128.103 14.2291 127.576 14.8431C127.037 15.4539 126.612 16.1576 126.324 16.9201C126.019 17.7123 125.862 18.554 125.862 19.4031C125.862 20.2651 126.02 21.1401 126.324 21.8851C126.606 22.6387 127.032 23.3307 127.576 23.9231C128.137 24.5151 128.808 24.9905 129.553 25.3221C130.343 25.6481 131.187 25.8441 132.136 25.8441Z" fill="#011F44"/>
<path d="M48.961 7.18598C50.446 7.18598 51.65 5.99298 51.65 4.52098C51.65 3.04898 50.446 1.85498 48.961 1.85498C47.476 1.85498 46.273 3.04898 46.273 4.52098C46.273 5.99298 47.476 7.18598 48.961 7.18598ZM116.426 7.18598C117.911 7.18598 119.115 5.99298 119.115 4.52098C119.115 3.04898 117.911 1.85498 116.426 1.85498C114.941 1.85498 113.737 3.04898 113.737 4.52098C113.737 5.99298 114.941 7.18598 116.426 7.18598ZM147.819 20.304C147.859 21.101 147.977 21.807 148.201 22.486C148.425 23.166 148.768 23.701 149.229 24.224C149.691 24.747 150.257 25.164 150.982 25.465C151.707 25.765 152.537 25.923 153.605 25.923C154.975 25.923 156.043 25.623 156.755 25.06C157.48 24.498 157.967 23.884 158.27 23.087H161.842C161.684 23.884 161.381 24.59 160.932 25.308C160.511 26.028 159.944 26.628 159.219 27.151C158.494 27.673 157.704 28.131 156.755 28.431C155.806 28.771 154.738 28.915 153.565 28.915C152.01 28.915 150.679 28.653 149.493 28.157C148.32 27.634 147.358 26.955 146.607 26.079C145.842 25.217 145.275 24.198 144.893 23.022C144.511 21.859 144.327 20.605 144.327 19.285C144.327 17.926 144.511 16.645 144.933 15.444C145.355 14.281 145.921 13.223 146.725 12.386C147.49 11.524 148.439 10.845 149.572 10.348C150.719 9.86498 152.01 9.62998 153.447 9.62998C154.593 9.62625 155.73 9.84355 156.794 10.27C157.862 10.688 158.732 11.289 159.535 12.047C160.304 12.8024 160.922 13.6982 161.354 14.686C161.78 15.713 162 16.814 162 17.926C162 18.188 162 18.527 161.96 18.906C161.96 19.286 161.881 19.729 161.802 20.226H147.819V20.304ZM153.368 12.582C151.773 12.582 150.481 13.04 149.453 13.942C148.465 14.842 147.938 15.966 147.859 17.626H158.573C158.573 16.006 158.086 14.882 157.097 13.98C156.109 13.04 154.857 12.582 153.368 12.582ZM18.741 15.666C18.2927 14.5172 17.6207 13.4689 16.764 12.582C15.894 11.681 14.866 11.002 13.68 10.466C12.507 9.98198 11.137 9.70798 9.647 9.70798C8.158 9.70798 6.84 9.94298 5.667 10.466C4.494 10.988 3.467 11.668 2.623 12.582C1.79134 13.4809 1.13416 14.5267 0.685 15.666C0.224 16.829 0 18.044 0 19.363C0 20.683 0.224 21.885 0.685 23.061C1.1439 24.1875 1.8002 25.2231 2.623 26.119C3.453 27.02 4.481 27.699 5.667 28.235C6.84 28.719 8.171 28.993 9.66 28.993C11.136 28.993 12.468 28.732 13.693 28.235C14.8544 27.7471 15.9039 27.027 16.777 26.119C17.647 25.256 18.293 24.237 18.754 23.061C19.215 21.898 19.439 20.644 19.439 19.363C19.4288 18.0989 19.1924 16.8468 18.741 15.666ZM15.473 21.886C15.1901 22.6395 14.7647 23.3314 14.22 23.924C13.6596 24.5153 12.9882 24.9904 12.244 25.322C11.479 25.662 10.609 25.844 9.66 25.844C8.712 25.844 7.842 25.661 7.077 25.321C6.3418 24.9936 5.68231 24.5176 5.14 23.923C4.5929 23.3324 4.16747 22.6399 3.888 21.885C3.57985 21.0939 3.42345 20.2519 3.427 19.403C3.427 18.54 3.585 17.704 3.887 16.92C4.1788 16.1591 4.60301 15.4559 5.14 14.843C5.67326 14.2283 6.33433 13.7376 7.077 13.405C7.842 13.065 8.712 12.883 9.66 12.883C10.61 12.883 11.48 13.066 12.244 13.406C13.008 13.784 13.694 14.229 14.22 14.843C14.748 15.443 15.17 16.123 15.472 16.92C15.7806 17.7113 15.9374 18.5536 15.934 19.403C15.934 20.265 15.776 21.089 15.473 21.886ZM13.944 3.27998C13.984 4.41598 12.574 5.19998 11.584 4.58598C11.202 4.35098 10.319 3.14898 9.766 2.73098C7.077 0.65298 2.45 2.74398 2.583 6.19298H5.47C5.444 4.80798 7.276 4.20698 8.133 5.13498C8.488 5.52698 9.082 6.37598 9.635 6.75498C12.482 8.77998 16.975 6.70298 16.845 3.27998H13.944Z" fill="#011F44"/>
</g>
</g>
<defs>
<clipPath id="clip0_1_16396">
<rect width="132" height="24" fill="white"/>
</clipPath>
<clipPath id="clip1_1_16396">
<rect width="162" height="29" fill="white"/>
</clipPath>
</defs>
</svg>
