<svg width="141" height="45" viewBox="0 0 141 45" fill="none" xmlns="http://www.w3.org/2000/svg">
<g clip-path="url(#clip0_1_16242)">
<path d="M41.2671 8.84H33.7171C33.6851 5.001 33.1041 1.71 38.2991 3.033V0.451996C35.8791 -0.484004 32.3941 -0.0650036 31.2331 2.71C30.4901 3.969 30.6521 7.163 30.6521 8.84H23.2951C23.2631 5.001 22.6821 1.71 27.8771 3.033V0.451996C25.4571 -0.484004 21.9721 -0.0650036 20.8111 2.71C20.0691 3.969 20.2301 7.163 20.2301 8.84H17.3901V11.616H20.1981V24.716H23.2631V11.616H30.6191V24.747H33.6851V11.616H41.0091V24.78H44.0741V8.84H41.2671ZM59.0791 14.649C58.9491 13.649 58.5621 12.842 57.8851 12.164C57.2071 11.519 56.1431 11.164 54.6261 11.164C53.7871 11.164 53.0771 11.325 52.4641 11.616C51.8191 11.906 51.3031 12.326 50.9151 12.874C50.4961 13.39 50.2051 13.971 49.9801 14.681C49.7861 15.359 49.6571 16.101 49.6571 16.811C49.6571 17.553 49.7541 18.295 49.9471 18.94C50.1411 19.617 50.4641 20.198 50.8831 20.747C51.3031 21.263 51.8511 21.65 52.4961 22.005C53.1741 22.295 53.9161 22.457 54.8201 22.457C56.1751 22.457 57.1751 22.167 57.7881 21.618C58.4331 21.07 58.8851 20.328 59.1431 19.328H62.2081C62.0791 20.134 61.8531 20.908 61.4661 21.618C61.1111 22.328 60.5631 22.973 59.9501 23.489C59.3041 24.006 58.5621 24.457 57.6591 24.748C56.7551 25.038 55.7551 25.199 54.5941 25.199C53.2711 25.199 52.1091 24.974 51.1091 24.522C50.1436 24.0896 49.2844 23.451 48.5921 22.651C47.9182 21.8714 47.3934 20.9745 47.0441 20.005C46.7211 19.005 46.5271 17.94 46.5271 16.907C46.5271 15.842 46.6891 14.777 47.0441 13.81C47.3661 12.81 47.9141 11.906 48.5601 11.132C49.2051 10.357 50.0771 9.712 51.0771 9.26C52.0771 8.809 53.2071 8.583 54.5611 8.583C55.8521 8.583 56.9811 8.776 57.8851 9.131C58.8211 9.486 59.5631 9.938 60.2081 10.551C60.7913 11.1252 61.2618 11.8036 61.5951 12.551C61.9181 13.293 62.1121 14.068 62.1761 14.842H59.1111L59.0791 14.649ZM67.5001 17.65C67.5321 18.327 67.6291 18.94 67.8221 19.553C68.0161 20.133 68.3061 20.617 68.7261 21.069C69.1131 21.521 69.6291 21.876 70.2421 22.134C70.8881 22.392 71.5971 22.521 72.5331 22.521C73.7271 22.521 74.6631 22.263 75.2761 21.779C75.9211 21.295 76.3401 20.747 76.5991 20.069H79.6961C79.5671 20.747 79.3091 21.359 78.9221 22.005C78.5671 22.618 78.0511 23.166 77.4381 23.618C76.7921 24.07 76.1151 24.458 75.3081 24.715C74.4691 25.005 73.5661 25.135 72.5331 25.135C71.1781 25.135 70.0161 24.909 68.9831 24.489C67.9511 24.038 67.1451 23.457 66.4671 22.683C65.7901 21.94 65.3061 21.037 64.9831 20.037C64.6554 18.9816 64.4921 17.8821 64.4991 16.777C64.4991 15.584 64.6601 14.487 65.0151 13.455C65.3701 12.455 65.8861 11.519 66.5641 10.809C67.2514 10.0413 68.1 9.43513 69.0491 9.034C70.0491 8.614 71.1781 8.421 72.4041 8.421C73.4361 8.421 74.4041 8.615 75.3081 8.97C76.2441 9.325 76.9861 9.84 77.6961 10.518C78.3731 11.164 78.8891 11.938 79.2761 12.809C79.6321 13.68 79.8261 14.649 79.8261 15.616C79.8261 15.842 79.8261 16.133 79.7931 16.456C79.7931 16.778 79.7281 17.166 79.6631 17.616H67.5001V17.65ZM72.3401 10.938C70.9521 10.938 69.8231 11.325 68.9521 12.132C68.0811 12.906 67.6291 13.906 67.5641 15.326H76.8891C76.8891 13.906 76.4691 12.938 75.5991 12.164C74.7271 11.325 73.6311 10.938 72.3401 10.938ZM84.0201 8.873L89.0531 20.456L94.1501 8.873H97.4421L90.0851 24.813H87.9551L80.6641 8.873H84.0201ZM102.733 8.873H99.6681V24.813H102.733V8.872V8.873ZM109.347 24.78H106.282V0.225996H109.347V11.583C109.864 10.583 110.638 9.808 111.671 9.26C112.682 8.71157 113.813 8.42324 114.962 8.421C116.188 8.421 117.317 8.647 118.317 9.066C119.35 9.518 120.221 10.099 120.931 10.906C121.652 11.6866 122.221 12.5948 122.609 13.584C122.996 14.584 123.189 15.681 123.189 16.81C123.19 17.9117 122.994 19.0047 122.609 20.037C122.228 21.02 121.658 21.9187 120.931 22.682C120.221 23.457 119.35 24.07 118.317 24.522C117.285 24.973 116.188 25.167 114.962 25.167C113.811 25.1724 112.678 24.8832 111.671 24.327C110.638 23.779 109.896 22.973 109.347 22.005V24.78ZM114.8 22.456C115.575 22.456 116.317 22.296 116.962 22.005C117.607 21.7291 118.181 21.3098 118.64 20.779C119.123 20.2682 119.496 19.6642 119.737 19.004C119.995 18.326 120.124 17.584 120.124 16.842C120.124 16.1 119.995 15.326 119.737 14.681C119.479 14.003 119.092 13.422 118.64 12.874C118.188 12.357 117.607 11.97 116.962 11.615C116.28 11.3173 115.544 11.1638 114.8 11.164C113.961 11.164 113.219 11.324 112.542 11.615C111.864 11.905 111.283 12.325 110.832 12.874C110.38 13.39 109.993 13.971 109.735 14.68C109.476 15.3713 109.345 16.1038 109.347 16.842C109.347 17.584 109.477 18.359 109.735 19.004C109.993 19.682 110.38 20.262 110.832 20.779C111.283 21.263 111.896 21.682 112.542 22.005C113.252 22.295 113.994 22.456 114.8 22.456Z" fill="#B2DDF2"/>
<path d="M42.526 6.26C42.8315 6.26132 43.1343 6.20211 43.4168 6.08577C43.6993 5.96944 43.9559 5.79829 44.1719 5.58221C44.3879 5.36612 44.5589 5.10939 44.6752 4.82684C44.7914 4.54429 44.8505 4.24151 44.849 3.936C44.8503 3.63057 44.7911 3.3279 44.6749 3.04546C44.5586 2.76302 44.3875 2.50641 44.1716 2.29044C43.9556 2.07446 43.699 1.9034 43.4165 1.78713C43.1341 1.67086 42.8314 1.61167 42.526 1.613C42.2206 1.61167 41.9179 1.67086 41.6355 1.78713C41.353 1.9034 41.0964 2.07446 40.8804 2.29044C40.6645 2.50641 40.4934 2.76302 40.3771 3.04546C40.2609 3.3279 40.2017 3.63057 40.203 3.936C40.2056 4.55138 40.4512 5.14082 40.8862 5.57606C41.3213 6.01129 41.9106 6.2571 42.526 6.26ZM101.152 6.26C101.457 6.26119 101.76 6.20188 102.043 6.0855C102.325 5.96912 102.582 5.79796 102.798 5.58191C103.014 5.36585 103.185 5.10918 103.301 4.82669C103.417 4.54419 103.476 4.24148 103.475 3.936C103.476 3.6306 103.417 3.32799 103.301 3.04562C103.184 2.76324 103.013 2.50668 102.797 2.29074C102.581 2.07479 102.325 1.90372 102.042 1.7874C101.76 1.67108 101.457 1.61181 101.152 1.613C100.847 1.61181 100.544 1.67108 100.262 1.7874C99.9792 1.90372 99.7227 2.07479 99.5067 2.29074C99.2908 2.50668 99.1197 2.76324 99.0034 3.04562C98.8871 3.32799 98.8278 3.6306 98.829 3.936C98.8316 4.55138 99.0772 5.14082 99.5122 5.57606C99.9473 6.01129 100.537 6.2571 101.152 6.26ZM128.417 17.65C128.449 18.327 128.546 18.94 128.74 19.553C128.933 20.133 129.224 20.617 129.643 21.069C130.03 21.521 130.547 21.876 131.16 22.134C131.805 22.392 132.515 22.521 133.451 22.521C134.644 22.521 135.58 22.263 136.193 21.779C136.838 21.295 137.258 20.747 137.516 20.069H140.614C140.484 20.747 140.226 21.359 139.839 22.005C139.484 22.618 138.968 23.166 138.355 23.618C137.71 24.07 137.032 24.458 136.225 24.715C135.387 25.005 134.483 25.135 133.451 25.135C132.095 25.135 130.934 24.909 129.901 24.489C128.869 24.038 128.062 23.457 127.385 22.683C126.707 21.94 126.223 21.037 125.9 20.037C125.578 19.037 125.417 17.939 125.417 16.777C125.417 15.584 125.578 14.487 125.933 13.455C126.288 12.455 126.804 11.519 127.481 10.809C128.168 10.0415 129.017 9.43539 129.966 9.034C130.966 8.614 132.095 8.421 133.322 8.421C134.354 8.421 135.322 8.615 136.225 8.97C137.161 9.325 137.903 9.84 138.613 10.518C139.291 11.164 139.807 11.938 140.194 12.809C140.555 13.7008 140.742 14.6538 140.743 15.616C140.743 15.842 140.743 16.133 140.71 16.456C140.71 16.778 140.646 17.166 140.581 17.616H128.417V17.65ZM133.257 10.938C131.87 10.938 130.74 11.325 129.869 12.132C128.998 12.906 128.546 13.906 128.482 15.326H137.774C137.774 13.906 137.355 12.938 136.484 12.164C135.645 11.325 134.548 10.938 133.257 10.938ZM16.294 13.616C15.9069 12.619 15.3256 11.7087 14.584 10.938C13.842 10.163 12.938 9.55 11.906 9.098C10.873 8.679 9.712 8.453 8.389 8.453C7.099 8.453 5.937 8.647 4.937 9.099C3.904 9.55 3.033 10.131 2.291 10.938C1.56987 11.7185 1.00079 12.6267 0.613 13.616C0.193 14.616 0 15.68 0 16.81C0 17.972 0.194 19.004 0.58 20.037C0.968 21.037 1.549 21.908 2.259 22.682C2.969 23.457 3.872 24.07 4.904 24.522C5.937 24.941 7.066 25.167 8.389 25.167C9.679 25.167 10.841 24.941 11.906 24.522C12.9181 24.1038 13.8307 23.4769 14.584 22.682C15.3317 21.9288 15.9141 21.028 16.294 20.037C16.681 19.037 16.874 17.939 16.874 16.81C16.8781 15.7188 16.6815 14.6361 16.294 13.616ZM13.454 19.004C13.197 19.682 12.809 20.262 12.358 20.779C11.906 21.263 11.293 21.682 10.648 22.005C9.97 22.295 9.228 22.457 8.389 22.457C7.61293 22.4632 6.84391 22.3094 6.13 22.005C5.48518 21.7289 4.91168 21.3097 4.453 20.779C3.97043 20.2681 3.59715 19.6641 3.356 19.004C3.097 18.359 2.968 17.584 2.968 16.842C2.968 16.1 3.098 15.358 3.356 14.681C3.614 14.003 4.001 13.422 4.453 12.874C4.91662 12.3404 5.48821 11.9113 6.13 11.615C6.84398 11.3109 7.613 11.1574 8.389 11.164C9.228 11.164 9.97 11.325 10.648 11.615C11.325 11.938 11.906 12.325 12.358 12.874C12.809 13.39 13.197 13.971 13.455 14.681C13.713 15.326 13.842 16.101 13.842 16.842C13.842 17.584 13.711 18.327 13.454 19.004ZM12.1 2.84C12.132 3.84 10.906 4.517 10.035 3.969C9.712 3.775 8.938 2.71 8.454 2.355C6.163 0.580998 2.13 2.388 2.259 5.388H4.776C4.743 4.194 6.356 3.678 7.099 4.485C7.421 4.84 7.938 5.55 8.389 5.905C10.874 7.679 14.778 5.872 14.649 2.872H12.099V2.839L12.1 2.84ZM110.993 37.073H113.123V38.686C112.596 38.8785 112.038 38.9767 111.477 38.976C109.606 38.976 108.412 37.783 108.412 35.944C108.412 35.524 108.476 35.137 108.638 34.75C108.795 34.3749 109.025 34.0349 109.315 33.75C109.928 33.169 110.703 32.91 111.638 32.91C112.671 32.91 113.671 33.201 114.897 33.847V31.62C113.868 31.1015 112.726 30.8465 111.574 30.878C109.961 30.878 108.67 31.362 107.67 32.266C106.67 33.201 106.153 34.427 106.153 35.944C106.153 37.428 106.605 38.622 107.541 39.525C108.444 40.429 109.67 40.88 111.154 40.88C112.574 40.88 113.929 40.493 115.155 39.783V35.395H110.993V37.073ZM120.157 35.298C119.318 34.911 118.737 34.588 118.479 34.33C118.354 34.212 118.255 34.0689 118.189 33.91C118.123 33.7465 118.09 33.5714 118.092 33.395C118.092 32.62 118.705 32.136 119.673 32.136C120.48 32.136 121.351 32.459 122.222 33.136H122.254V31.62C121.505 31.1334 120.63 30.8755 119.737 30.878C117.995 30.878 116.834 31.91 116.834 33.524C116.801 34.104 116.995 34.653 117.35 35.104C117.705 35.524 118.35 35.976 119.286 36.395C120.092 36.782 120.641 37.073 120.931 37.363C121.06 37.493 121.157 37.621 121.254 37.783C121.318 37.944 121.351 38.138 121.351 38.299C121.351 39.138 120.673 39.719 119.608 39.719C118.64 39.719 117.447 39.138 116.446 38.202H116.414L116.737 40.009C117.541 40.6317 118.527 40.972 119.544 40.977C120.447 40.977 121.222 40.719 121.77 40.203C122.061 39.944 122.286 39.654 122.415 39.299C122.575 38.9569 122.642 38.5784 122.609 38.202C122.641 36.944 121.964 36.137 120.157 35.298ZM127.126 33.653C126.642 33.653 126.158 33.717 125.706 33.911C125.265 34.0919 124.868 34.3673 124.545 34.718C124.222 35.072 123.932 35.46 123.77 35.911C123.577 36.363 123.512 36.847 123.512 37.331C123.501 37.8059 123.583 38.2783 123.755 38.7212C123.926 39.1642 124.184 39.5688 124.512 39.912C125.19 40.622 126.029 40.977 127.094 40.977C127.578 40.977 128.062 40.913 128.513 40.719C128.96 40.5305 129.365 40.2563 129.707 39.912C130.376 39.2069 130.746 38.2707 130.74 37.299C130.74 36.815 130.675 36.331 130.514 35.911C130.348 35.468 130.096 35.0624 129.772 34.718C129.03 34.008 128.158 33.653 127.126 33.653ZM128.771 39.138C128.546 39.364 128.287 39.558 127.997 39.687C127.707 39.816 127.384 39.88 127.061 39.88C126.739 39.88 126.448 39.815 126.158 39.719C125.873 39.5928 125.62 39.4053 125.416 39.17C124.964 38.686 124.738 38.04 124.738 37.363C124.706 36.686 124.964 36.041 125.416 35.524C125.609 35.298 125.9 35.104 126.19 34.976C126.483 34.8419 126.805 34.7861 127.126 34.814C127.449 34.814 127.739 34.879 128.029 34.976C128.32 35.105 128.578 35.266 128.804 35.524C129.255 36.008 129.481 36.654 129.449 37.331C129.481 37.976 129.223 38.621 128.771 39.138ZM140.839 39.106C140.322 39.557 139.806 39.816 139.322 39.816C138.58 39.816 138.193 39.396 138.193 38.557V34.911H140.871V33.846H138.193V31.846L136.967 32.298V33.846H133.644V32.717C133.644 31.91 134.095 31.427 134.805 31.427C135.192 31.427 135.547 31.523 136.063 31.846L136.096 31.814L135.902 30.523C135.538 30.3543 135.142 30.2663 134.741 30.265C133.321 30.265 132.45 31.201 132.45 32.749V33.846H131.224V34.911H132.45V40.783H133.676V34.911H136.999V38.621C136.999 40.074 137.806 40.945 139.096 40.945C139.65 40.9483 140.191 40.7791 140.645 40.461L140.936 39.138L140.839 39.106ZM98.603 37.847C98.603 37.137 98.409 36.557 97.99 36.105C97.57 35.653 97.054 35.395 96.441 35.395C95.796 35.395 95.28 35.621 94.699 36.234V32.943L93.795 33.266V40.493H93.892L94.537 40.299C94.989 40.493 95.441 40.589 95.893 40.589C96.667 40.589 97.313 40.332 97.829 39.815C98.345 39.299 98.603 38.654 98.603 37.847ZM95.86 39.751C95.44 39.751 95.086 39.686 94.667 39.525V36.847C95.183 36.395 95.635 36.234 96.151 36.234C97.054 36.234 97.7 36.944 97.7 37.944C97.7 38.46 97.538 38.912 97.183 39.267C96.828 39.59 96.377 39.751 95.86 39.751ZM99.861 42.429C100.636 42.429 101.216 41.977 101.604 41.041L103.895 35.491H102.927L101.442 39.171L99.862 35.491H98.862L100.958 40.203L100.732 40.719C100.474 41.299 100.152 41.59 99.668 41.59C99.3678 41.595 99.0737 41.5046 98.828 41.332L98.797 41.364L98.99 42.268C99.313 42.364 99.57 42.429 99.861 42.429Z" fill="#B2DDF2"/>
</g>
<defs>
<clipPath id="clip0_1_16242">
<rect width="141" height="45" fill="white"/>
</clipPath>
</defs>
</svg>
