<svg width="120" height="41" viewBox="0 0 120 41" fill="none" xmlns="http://www.w3.org/2000/svg">
<g clip-path="url(#clip0_1_16382)">
<path d="M31.451 20.703C31.451 22.388 30.127 23.743 28.479 23.743C26.831 23.743 25.507 22.388 25.507 20.703C25.507 19.018 26.831 17.664 28.479 17.664C30.127 17.664 31.451 19.048 31.451 20.704V20.703ZM31.451 29.399C31.451 31.084 30.127 32.439 28.479 32.439C26.831 32.439 25.507 31.084 25.507 29.399C25.507 27.714 26.831 26.359 28.479 26.359C30.127 26.359 31.451 27.744 31.451 29.399ZM22.948 20.703C22.948 22.388 21.624 23.743 19.976 23.743C18.328 23.743 17.004 22.388 17.004 20.703C17.004 19.018 18.328 17.664 19.976 17.664C21.624 17.664 22.948 19.048 22.948 20.704V20.703ZM22.948 29.399C22.948 31.084 21.624 32.439 19.976 32.439C18.328 32.439 17.004 31.084 17.004 29.399C17.004 27.714 18.328 26.359 19.976 26.359C21.624 26.359 22.948 27.744 22.948 29.399ZM14.443 29.399C14.443 31.084 13.119 32.439 11.471 32.439C9.823 32.439 8.5 31.083 8.5 29.398C8.5 27.713 9.824 26.358 11.472 26.358C13.12 26.358 14.444 27.743 14.444 29.398L14.443 29.399ZM5.944 20.703C5.944 22.388 4.619 23.743 2.972 23.743C1.353 23.772 0 22.387 0 20.702C0 19.017 1.324 17.663 2.972 17.663C4.619 17.663 5.944 19.047 5.944 20.703ZM5.944 29.399C5.944 31.084 4.619 32.439 2.972 32.439C1.324 32.439 0 31.084 0 29.399C0 27.714 1.324 26.359 2.972 26.359C4.619 26.359 5.944 27.744 5.944 29.399ZM39.484 17.544H44.044C46.164 17.544 47.929 17.694 49.164 19.199C49.929 20.162 50.076 21.245 50.076 22.027C50.076 23.773 49.37 25.247 48.193 26.029C47.105 26.752 45.633 26.752 44.839 26.752H42.691V32.619H39.484V17.544ZM42.603 24.314H43.868C44.898 24.314 46.781 24.314 46.781 22.027C46.781 19.981 45.074 19.981 44.191 19.981H42.603V24.314ZM56.815 32.588C56.727 31.956 56.727 31.475 56.727 31.144C55.579 32.829 54.226 32.829 53.637 32.829C52.137 32.829 51.489 32.378 51.077 31.986C50.459 31.355 50.195 30.512 50.195 29.669C50.195 28.827 50.489 27.292 52.372 26.389C53.637 25.818 55.462 25.818 56.462 25.818C56.462 25.126 56.432 24.795 56.315 24.434C56.05 23.651 55.255 23.561 54.961 23.561C54.52 23.561 54.078 23.741 53.814 24.133C53.578 24.493 53.578 24.825 53.578 25.066H50.606C50.636 24.494 50.695 23.381 51.783 22.568C52.725 21.876 53.931 21.726 54.903 21.726C55.756 21.726 57.55 21.876 58.58 23.08C59.286 23.922 59.286 25.186 59.286 25.668L59.316 29.91C59.316 30.813 59.375 31.716 59.551 32.588H56.815ZM53.078 29.308C53.078 30.031 53.548 30.813 54.549 30.813C55.109 30.813 55.549 30.543 55.844 30.211C56.374 29.549 56.403 28.737 56.403 27.593C54.49 27.443 53.078 28.075 53.078 29.308ZM63.255 22.027L65.52 29.339L67.845 22.027H70.846L66.933 32.378L65.697 36.591H62.667L63.961 32.619L60.018 22.027H63.255ZM74.5 27.745C74.5 28.467 74.47 30.603 77.177 30.603C78.883 30.603 79.972 29.761 79.972 28.497C79.972 27.173 79.06 26.932 77.177 26.481C73.675 25.578 71.763 24.525 71.763 21.907C71.763 19.41 73.499 17.243 77.589 17.243C79.119 17.243 80.943 17.604 82.032 19.019C82.856 20.102 82.856 21.305 82.856 21.817H79.825C79.795 21.305 79.619 19.53 77.442 19.53C75.971 19.53 75 20.343 75 21.576C75 22.96 76.088 23.231 78.207 23.773C80.767 24.405 83.267 25.097 83.267 28.046C83.267 30.754 81.061 32.95 76.971 32.95C71.321 32.95 71.292 29.25 71.263 27.775H74.499M90.415 25.788C90.385 25.398 90.238 23.862 89.091 23.862C87.649 23.862 87.501 26.059 87.501 27.232C87.501 27.804 87.561 29.7 88.267 30.452C88.561 30.753 88.855 30.813 89.091 30.813C89.414 30.813 90.356 30.663 90.474 28.797H93.445C93.415 29.61 93.298 30.874 92.121 31.897C91.386 32.559 90.474 32.89 89.179 32.89C87.826 32.89 86.619 32.589 85.678 31.506C84.765 30.452 84.383 29.038 84.383 27.353C84.383 22.568 87.826 21.876 89.208 21.876C91.121 21.876 93.386 22.96 93.416 25.818H90.415M100.861 32.588C100.773 31.956 100.773 31.475 100.773 31.144C99.625 32.829 98.272 32.829 97.683 32.829C96.183 32.829 95.506 32.378 95.123 31.986C94.505 31.355 94.211 30.512 94.211 29.669C94.211 28.827 94.505 27.292 96.388 26.389C97.654 25.818 99.478 25.818 100.478 25.818C100.478 25.126 100.449 24.795 100.331 24.434C100.066 23.651 99.272 23.561 98.978 23.561C98.536 23.561 98.095 23.741 97.83 24.133C97.595 24.493 97.595 24.825 97.595 25.066H94.623C94.653 24.494 94.711 23.381 95.8 22.568C96.742 21.876 97.948 21.726 98.919 21.726C99.772 21.726 101.567 21.876 102.597 23.08C103.303 23.922 103.303 25.186 103.303 25.668L103.332 29.91C103.332 30.813 103.391 31.716 103.568 32.588H100.861ZM97.124 29.308C97.124 30.031 97.594 30.813 98.595 30.813C99.155 30.813 99.595 30.543 99.89 30.211C100.419 29.549 100.449 28.737 100.449 27.593C98.536 27.443 97.124 28.075 97.124 29.308ZM105.508 17.483H108.509V32.59H105.508V17.483ZM113.1 28.075C113.1 28.767 113.1 30.904 115.189 30.904C115.954 30.904 116.689 30.603 116.984 29.429H119.72C119.69 29.941 119.573 30.813 118.749 31.716C117.984 32.529 116.66 32.95 115.13 32.95C114.247 32.95 112.57 32.77 111.511 31.626C110.569 30.633 110.187 29.219 110.187 27.503C110.187 25.788 110.599 23.743 112.335 22.508C113.185 21.9307 114.191 21.6265 115.218 21.636C116.689 21.636 118.455 22.208 119.367 24.194C120.073 25.638 120.014 27.172 119.985 28.045H113.1V28.075ZM116.925 26.149C116.925 25.668 116.895 23.802 115.13 23.802C113.806 23.802 113.247 24.916 113.188 26.149H116.925ZM31.451 3.34003C31.451 5.02603 30.127 6.38003 28.479 6.38003C26.831 6.38003 25.507 5.02603 25.507 3.34003C25.507 1.65503 26.831 0.301025 28.479 0.301025C30.127 0.301025 31.451 1.65403 31.451 3.34003ZM31.451 12.037C31.451 13.722 30.127 15.076 28.479 15.076C26.831 15.076 25.507 13.722 25.507 12.036C25.507 10.352 26.831 8.99803 28.479 8.99803C30.127 8.99803 31.451 10.352 31.451 12.037ZM31.451 38.096C31.451 39.781 30.127 41.135 28.479 41.135C26.831 41.135 25.507 39.781 25.507 38.095C25.507 36.411 26.831 35.057 28.479 35.057C30.127 35.057 31.451 36.411 31.451 38.096ZM22.948 38.096C22.948 39.781 21.624 41.135 19.976 41.135C18.328 41.135 17.004 39.781 17.004 38.095C17.004 36.411 18.328 35.057 19.976 35.057C21.624 35.057 22.948 36.411 22.948 38.096ZM14.443 38.095C14.443 39.78 13.119 41.135 11.471 41.135C9.823 41.135 8.5 39.78 8.5 38.095C8.5 36.41 9.824 35.056 11.472 35.056C13.12 35.056 14.444 36.41 14.444 38.096L14.443 38.095ZM5.944 38.095C5.944 39.78 4.619 41.135 2.972 41.135C1.324 41.135 0 39.78 0 38.095C0 36.41 1.324 35.056 2.972 35.056C4.619 35.056 5.944 36.409 5.944 38.095Z" fill="#422439"/>
</g>
<defs>
<clipPath id="clip0_1_16382">
<rect width="120" height="41" fill="white"/>
</clipPath>
</defs>
</svg>
