<svg width="120" height="41" viewBox="0 0 120 41" fill="none" xmlns="http://www.w3.org/2000/svg">
<g clip-path="url(#clip0_1_16379)">
<path d="M9.22017 16.142C11.7402 16.142 14.2442 16.142 16.7652 16.159C17.0912 16.159 17.4682 16.228 17.7252 16.383C18.2742 16.728 18.4282 17.262 18.2232 17.968C18.0295 18.6003 17.8178 19.2268 17.5882 19.847C16.7142 22.415 15.7882 24.983 14.8782 27.55C14.5182 28.567 14.0042 28.963 13.0782 28.929C12.2902 28.912 11.8952 28.602 11.6042 27.757C11.1412 26.396 10.6942 25.034 10.2492 23.673C10.1982 23.518 10.1292 23.345 10.0782 23.19C9.95817 22.777 9.64817 22.604 9.25517 22.535C8.84317 22.466 8.53517 22.673 8.31117 23.001C8.19117 23.191 8.12317 23.414 8.05417 23.638C7.64317 24.862 7.24817 26.085 6.83717 27.309C6.75209 27.58 6.64886 27.8449 6.52817 28.102C6.25417 28.688 5.77417 28.929 5.13917 28.929C4.47017 28.946 3.97317 28.722 3.66417 28.102C3.56217 27.895 3.45917 27.688 3.39017 27.464C2.32717 24.466 1.35017 21.432 0.200168 18.468C-0.381832 16.968 0.338168 16.021 1.93317 16.09C4.36717 16.228 6.80317 16.142 9.22017 16.142ZM22.3042 23.26C22.3382 24.604 23.1102 25.707 24.3102 26.19C25.6302 26.74 26.9342 26.586 28.2032 26.017L28.8202 25.707C29.4722 25.397 30.1232 25.569 30.4662 26.12C30.8432 26.724 30.7062 27.55 30.1232 27.964C29.7937 28.1873 29.4434 28.3782 29.0772 28.534C26.8142 29.55 24.5502 29.602 22.3212 28.43C20.3662 27.396 19.3212 25.724 18.9772 23.535C18.8232 22.485 18.9262 21.467 19.1832 20.485C19.8522 18.021 21.4812 16.539 23.9672 15.987C25.5972 15.625 27.1402 15.797 28.5632 16.711C30.1922 17.762 30.8432 19.365 30.9982 21.209C31.0662 22.053 30.6552 22.639 29.9522 23.036C29.5247 23.266 29.0692 23.4397 28.5972 23.553C26.7282 24.001 24.8772 23.932 23.0242 23.449C22.8012 23.397 22.5782 23.33 22.3042 23.26ZM101.351 23.07C101.489 25.121 103.169 26.551 105.055 26.517C105.972 26.4984 106.872 26.2619 107.679 25.827C108.725 25.293 109.599 25.776 109.737 26.965C109.771 27.361 109.685 27.689 109.308 27.913C107.627 28.998 105.793 29.463 103.838 29.171C101.934 28.895 100.323 28.034 99.2082 26.379C98.2822 25.018 97.9392 23.501 98.0762 21.881C98.2482 19.779 99.0882 17.969 100.923 16.831C102.946 15.574 105.124 15.401 107.302 16.435C108.862 17.176 109.651 18.555 110.028 20.192C110.148 20.692 110.148 21.209 110.217 21.726C110.32 22.398 109.702 23.001 109.016 23.019H102.243C101.952 23.036 101.677 23.053 101.351 23.07ZM101.506 21.037C102.535 21.192 106.359 21.157 106.976 21.002C106.942 19.348 105.998 18.279 104.507 18.228C102.912 18.193 101.592 19.399 101.506 21.037ZM67.8452 18.417C68.0682 18.124 68.1712 17.987 68.2572 17.848C69.5082 15.988 72.2872 15.298 74.3952 16.16C75.9902 16.814 76.6422 18.124 76.7452 19.744C76.8132 20.951 76.7792 22.157 76.7792 23.364V27.585C76.7792 28.757 76.6082 28.912 75.4242 28.912C75.1332 28.912 74.8582 28.93 74.5672 28.895C73.9672 28.843 73.7102 28.568 73.6582 27.965C73.6412 27.741 73.6412 27.499 73.6412 27.275C73.6412 25.345 73.6582 23.432 73.6412 21.502C73.6412 21.02 73.5902 20.52 73.4692 20.054C73.2812 19.244 72.7842 18.814 71.9782 18.744C70.5382 18.624 69.4062 19.141 68.6342 20.382C68.2052 21.072 67.9652 21.829 67.9822 22.657C67.9992 24.156 67.9822 25.638 67.9822 27.137C67.9822 27.396 67.9822 27.654 67.9482 27.913C67.8282 28.671 67.5882 28.878 66.8162 28.895C66.4732 28.912 66.1302 28.912 65.7872 28.895C65.2042 28.861 64.8962 28.585 64.7932 28.016C64.7592 27.792 64.7762 27.551 64.7762 27.326V17.676C64.7762 17.504 64.7592 17.331 64.7762 17.159C64.8442 16.435 65.1532 16.142 65.8562 16.108C66.1652 16.091 66.4912 16.091 66.7992 16.108C67.4512 16.142 67.7772 16.453 67.8282 17.125C67.8792 17.504 67.8452 17.849 67.8452 18.417ZM59.0722 27.051C58.7292 27.431 58.4892 27.741 58.1982 27.999C56.3802 29.723 53.4822 29.654 51.8022 27.879C50.4982 26.499 50.4642 23.777 52.3162 22.484C53.4992 21.657 54.8362 21.295 56.2432 21.157C57.0832 21.071 57.9402 21.02 58.7812 20.951C58.9692 19.675 58.4382 18.865 57.2712 18.572C56.2772 18.314 55.3512 18.555 54.4252 18.882C54.0992 19.003 53.7912 19.158 53.4652 19.227C52.8302 19.382 52.4702 19.107 52.4022 18.452V18.279C52.3502 16.935 52.5392 16.625 53.8422 16.246C55.3172 15.815 56.7922 15.66 58.3182 15.97C60.5132 16.418 61.8682 18.004 62.0042 20.313C62.1072 22.036 62.0392 23.76 62.0392 25.483C62.0392 26.259 62.0562 27.034 62.0392 27.809C62.0212 28.619 61.7472 28.895 60.9592 28.929C60.6734 28.9463 60.3869 28.9463 60.1012 28.929C59.4492 28.878 59.1752 28.619 59.1242 27.965C59.0892 27.689 59.0892 27.413 59.0722 27.051ZM58.3692 22.95C57.8032 22.984 57.2202 22.984 56.6722 23.087C56.0882 23.208 55.5052 23.363 54.9742 23.622C54.2882 23.949 53.9282 24.69 54.0312 25.311C54.1682 26.069 54.6142 26.551 55.3512 26.707C55.6772 26.776 56.0372 26.827 56.3632 26.758C57.8032 26.483 58.9862 24.914 58.9182 23.415C58.8832 23.019 58.7812 22.932 58.3692 22.95ZM83.9322 15.763C85.1152 15.798 86.1952 16.108 87.2422 16.625C88.0472 17.021 88.1842 17.435 87.8242 18.21C87.4302 19.09 86.9672 19.313 86.1442 18.969C85.3212 18.624 84.4812 18.314 83.5892 18.399C83.2292 18.434 82.8522 18.538 82.5432 18.727C81.9092 19.124 81.8742 19.951 82.4572 20.399C82.8862 20.726 83.4002 20.933 83.8972 21.14C84.5492 21.416 85.2522 21.605 85.9042 21.898C87.0532 22.433 88.0142 23.156 88.3042 24.518C88.6302 26.052 88.1342 27.292 86.9162 28.223C85.7162 29.136 84.3092 29.36 82.8522 29.24C81.5822 29.12 80.4002 28.723 79.3362 27.982C78.7712 27.585 78.6682 27.189 78.9762 26.586C79.0577 26.4361 79.1496 26.2921 79.2512 26.155C79.7142 25.552 80.0222 25.5 80.7432 25.793C81.4215 26.0901 82.1137 26.3547 82.8172 26.586C83.3992 26.756 84.0214 26.7257 84.5842 26.5C85.4922 26.12 85.6812 25.104 84.8582 24.535C84.3262 24.173 83.6752 23.966 83.0922 23.708C82.2862 23.346 81.4462 23.036 80.6922 22.605C78.9762 21.623 78.4622 19.313 79.7482 17.521C80.3482 16.694 81.2402 16.281 82.1832 16.039C82.7492 15.884 83.3492 15.849 83.9322 15.763ZM91.3372 18.812C89.8272 18.485 89.6222 18.295 89.6572 17.33C89.6732 16.469 89.9132 16.279 91.2852 16.072C91.3022 15.814 91.3202 15.538 91.3542 15.262C91.4742 13.832 92.0742 12.677 93.3262 11.919C94.3791 11.2674 95.6042 10.9488 96.8412 11.005C97.3902 11.023 97.5612 11.178 97.6472 11.695C97.6812 11.885 97.6642 12.091 97.6642 12.298C97.6642 13.401 97.4412 13.659 96.3442 13.763C95.1942 13.883 94.6802 14.401 94.5442 15.573C94.4922 16.073 94.5262 16.141 95.0062 16.158C95.4692 16.176 95.9152 16.158 96.3782 16.176C97.1152 16.193 97.3382 16.434 97.4412 17.244C97.5442 18.002 97.2702 18.484 96.6522 18.64C96.3476 18.7027 96.0371 18.7316 95.7262 18.726C95.3662 18.743 94.9892 18.726 94.5432 18.726C94.5262 19.106 94.5092 19.416 94.5092 19.709V27.377C94.5092 27.636 94.5262 27.894 94.4922 28.153C94.4402 28.636 94.2172 28.894 93.7372 28.928C93.2572 28.963 92.7602 28.963 92.2802 28.928C91.7142 28.894 91.4572 28.618 91.4052 28.067C91.3712 27.843 91.3882 27.602 91.3882 27.377V19.795C91.3372 19.467 91.3372 19.157 91.3372 18.812ZM34.1022 18.796C32.4392 18.452 32.3362 18.366 32.3192 17.4C32.3192 16.918 32.3532 16.435 32.8852 16.263C33.2792 16.143 33.7082 16.125 34.2392 16.056V14.781C34.2392 14.385 34.2222 13.971 34.2562 13.575C34.2912 13.023 34.4452 12.782 34.9942 12.678C35.4572 12.592 35.9542 12.575 36.4342 12.627C37.0692 12.713 37.2922 13.006 37.3262 13.678C37.3602 14.16 37.3262 14.66 37.3262 15.143V16.091C37.6522 16.108 37.9262 16.125 38.2002 16.142H39.4002C40.3782 16.177 40.8582 16.797 40.6522 17.728C40.5502 18.193 40.3092 18.521 39.8122 18.572C39.4522 18.624 39.0752 18.659 38.7152 18.676C38.2862 18.693 37.8752 18.676 37.3952 18.676C37.3602 18.969 37.3252 19.193 37.3252 19.4V23.708C37.3252 23.966 37.3432 24.225 37.3772 24.483C37.5492 25.397 38.1142 25.948 39.0232 26.121C39.2982 26.172 39.5892 26.207 39.8632 26.293C40.4812 26.465 40.7032 26.776 40.7212 27.499C40.7552 28.292 40.5502 28.671 39.9842 28.895C39.8812 28.93 39.7612 28.965 39.6582 28.999C37.4112 29.516 34.7882 27.913 34.2732 25.673C34.1579 25.1404 34.095 24.5978 34.0852 24.053C34.0682 22.588 34.0852 21.123 34.0682 19.658C34.1022 19.399 34.1022 19.124 34.1022 18.796ZM115.43 18.744C115.567 18.537 115.705 18.348 115.825 18.141C116.425 17.211 117.179 16.435 118.294 16.125C118.517 16.073 118.74 16.021 118.963 16.005C119.58 15.987 119.923 16.315 119.974 16.917C120.009 17.314 120.009 17.727 119.974 18.124C119.94 18.675 119.614 19.003 119.048 19.072C116.853 19.382 115.636 20.657 115.516 22.88C115.43 24.362 115.43 25.862 115.396 27.344C115.396 27.637 115.396 27.912 115.362 28.205C115.31 28.585 115.07 28.843 114.693 28.878C114.161 28.912 113.613 28.912 113.064 28.878C112.652 28.86 112.395 28.585 112.309 28.171C112.275 27.981 112.275 27.775 112.275 27.568V17.486C112.275 17.314 112.258 17.141 112.292 16.969C112.361 16.452 112.618 16.176 113.115 16.125C113.572 16.0905 114.03 16.0905 114.487 16.125C114.984 16.159 115.173 16.4 115.19 16.917C115.207 17.487 115.19 18.055 115.19 18.624C115.259 18.693 115.345 18.71 115.43 18.744ZM45.9372 19.072C46.2972 18.503 46.5202 18.072 46.7942 17.676C47.3942 16.866 48.1322 16.28 49.1442 16.073C50.1552 15.866 50.5492 16.159 50.5672 17.176C50.5672 17.469 50.5842 17.745 50.5672 18.038C50.5322 18.796 50.3092 19.02 49.5212 19.106C49.2982 19.123 49.0582 19.141 48.8512 19.192C47.8232 19.416 47.1542 20.088 46.6912 21.002C46.2906 21.7683 46.079 22.6193 46.0742 23.484V27.361C46.0742 27.568 46.0912 27.757 46.0742 27.964C46.0232 28.619 45.7482 28.894 45.1142 28.947C44.6852 28.981 44.2562 28.964 43.8282 28.947C43.2792 28.912 43.0222 28.74 42.9702 28.171C42.8852 27.327 42.8852 26.465 42.8852 25.603C42.868 23.4547 42.868 21.3063 42.8852 19.158C42.8852 18.417 42.9192 17.676 42.9702 16.935C43.0052 16.487 43.2452 16.228 43.6732 16.194C44.1532 16.159 44.6512 16.142 45.1312 16.194C45.6452 16.245 45.8852 16.521 45.9202 17.038C45.9542 17.641 45.9372 18.279 45.9372 19.072Z" fill="#422439"/>
</g>
<defs>
<clipPath id="clip0_1_16379">
<rect width="120" height="41" fill="white"/>
</clipPath>
</defs>
</svg>
